PathFileType	4	(X/Y/Z)	/Users/itak/Documents/Research/Walk-IL/dataset/trc/00179_00008.trc
DataRate	CameraRate	NumFrames	NumMarkers	Units	OrigDataRate	OrigDataStartFrame	OrigNumFrames
100.000000	100.000000	4	53	mm	100.000000	651	745
Frame#	Time	RPSI			LPSI			L3			STRN			T10			C7			CLAV			RBAK			LBAK			LSHO			LUPA			LAEL			LAOL			LWTS			LWPS			LFRA			LIFD			LHPS			LHTS			RSHO			RUPA			RAEL			RAOL			RWTS			RWPS			RFRA			RIFD			RHTS			RHPS			RBHD			LFHD			RFHD			LBHD			LHIP			RHIP			RASI			LASI			LKNE			LTHI			LANK			LTIP			LTOE			LMT1			LMT5			LHEE			RKNE			RTHI			RANK			RTIP			RTOE			RMT1			RMT5			RHEE			
		X1	Y1	Z1	X2	Y2	Z2	X3	Y3	Z3	X4	Y4	Z4	X5	Y5	Z5	X6	Y6	Z6	X7	Y7	Z7	X8	Y8	Z8	X9	Y9	Z9	X10	Y10	Z10	X11	Y11	Z11	X12	Y12	Z12	X13	Y13	Z13	X14	Y14	Z14	X15	Y15	Z15	X16	Y16	Z16	X17	Y17	Z17	X18	Y18	Z18	X19	Y19	Z19	X20	Y20	Z20	X21	Y21	Z21	X22	Y22	Z22	X23	Y23	Z23	X24	Y24	Z24	X25	Y25	Z25	X26	Y26	Z26	X27	Y27	Z27	X28	Y28	Z28	X29	Y29	Z29	X30	Y30	Z30	X31	Y31	Z31	X32	Y32	Z32	X33	Y33	Z33	X34	Y34	Z34	X35	Y35	Z35	X36	Y36	Z36	X37	Y37	Z37	X38	Y38	Z38	X39	Y39	Z39	X40	Y40	Z40	X41	Y41	Z41	X42	Y42	Z42	X43	Y43	Z43	X44	Y44	Z44	X45	Y45	Z45	X46	Y46	Z46	X47	Y47	Z47	X48	Y48	Z48	X49	Y49	Z49	X50	Y50	Z50	X51	Y51	Z51	X52	Y52	Z52	X53	Y53	Z53	

652	6.51	-185.3275451660156	1064.037963867188	1211.067993164062	-189.1014862060547	1068.562255859375	1086.555541992188	-187.268310546875	1103.260009765625	1151.6806640625	67.12819671630859	1318.81689453125	1143.519287109375	-230.3766326904297	1259.889404296875	1146.0869140625	-169.7724151611328	1530.3349609375	1126.151000976562	35.93508148193359	1431.186157226562	1132.704711914062	-233.3169097900391	1356.493286132812	1242.0390625	-176.0795288085938	1504.033203125	1027.004150390625	-98.89146423339844	1491.0478515625	948.772216796875	-133.2499389648438	1356.112670898438	882.4306030273438	-117.863037109375	1137.226806640625	873.6647338867188	-158.4961090087891	1121.539428710938	951.0489501953125	41.88035583496094	939.7131958007812	920.1971435546875	-32.58788681030273	895.0931396484375	883.3865356445312	-83.05574035644531	1028.570190429688	868.357421875	101.2165679931641	766.9199829101562	958.13671875	4.972471237182617	833.56982421875	893.6775512695312	71.21645355224609	863.6670532226562	906.6842651367188	-107.9897918701172	1516.105102539062	1306.009155273438	-126.1919631958008	1455.00341796875	1377.391967773438	-132.3760070800781	1175.438720703125	1467.088623046875	-131.8646545410156	1154.385375976562	1370.407836914062	66.75947570800781	997.5819702148438	1472.598022460938	-1.623092412948608	958.8229370117188	1512.930297851562	-91.39329528808594	1110.029418945312	1492.794677734375	145.8662567138672	825.7723388671875	1462.766967773438	121.1773910522461	918.8272705078125	1490.135498046875	52.43015289306641	890.6130981445312	1517.612060546875	-103.3791580200195	1698.407592773438	1186.837890625	88.55519866943359	1724.775024414062	1087.03564453125	65.8408203125	1729.5830078125	1214.208862304688	-86.12983703613281	1701.448120117188	1048.48681640625	-87.276123046875	1006.336059570312	965.226806640625	-22.70817375183105	1024.2109375	1329.507568359375	53.06179428100586	1054.067138671875	1270.66064453125	35.96957397460938	1048.541015625	1012.979125976562	-22.41427803039551	506.5950012207031	1008.802307128906	-37.21912002563477	649.0155029296875	975.67138671875	-123.2770080566406	42.34148788452148	1030.255615234375	-72.61954498291016	279.5148010253906	1008.33935546875	92.11965942382812	53.19527816772461	1041.74560546875	47.98905944824219	49.19042587280273	1093.80712890625	-16.99541664123535	37.49809265136719	985.6419067382812	-170.4705810546875	44.03279495239258	1101.893798828125	14.77289295196533	524.6973266601562	1289.65380859375	46.59026336669922	794.201904296875	1322.570678710938	-83.12159729003906	39.52817916870117	1298.76318359375	23.27816009521484	402.7381286621094	1270.502563476562	139.4994354248047	46.49698257446289	1251.246459960938	82.89122009277344	47.98920059204102	1208.817138671875	30.19568824768066	36.99442672729492	1329.063354492188	-137.7578582763672	42.72002410888672	1232.538208007812	
653	6.52	-183.0084075927734	1064.066284179688	1211.65673828125	-187.043212890625	1068.317504882812	1087.076538085938	-185.0672149658203	1103.159790039062	1152.086791992188	69.3214111328125	1318.535278320312	1143.114990234375	-228.1400146484375	1259.574096679688	1146.120361328125	-167.7070770263672	1530.103515625	1126.11767578125	38.08099365234375	1430.909301757812	1132.451416015625	-231.043212890625	1356.0625	1241.99560546875	-174.0696411132812	1503.723999023438	1026.920166015625	-96.90534973144531	1490.748046875	948.6245727539062	-131.1592102050781	1355.772827148438	882.322265625	-115.46630859375	1136.777099609375	873.5999145507812	-156.3732299804688	1121.13671875	950.8084106445312	44.43094253540039	939.6671752929688	921.3234252929688	-29.69664192199707	894.7916870117188	884.2255859375	-80.43312835693359	1028.14794921875	868.6549682617188	104.0294570922852	767.1641235351562	959.9303588867188	7.948065280914307	833.3829956054688	894.8672485351562	74.03887176513672	863.7003173828125	908.1173095703125	-105.6837768554688	1515.636352539062	1306.044189453125	-123.7990951538086	1454.244995117188	1377.2958984375	-129.8486785888672	1174.031616210938	1465.31787109375	-129.5008087158203	1153.605346679688	1368.508911132812	68.52024841308594	995.2250366210938	1469.134155273438	0.1498181968927383	956.6585693359375	1509.65087890625	-89.05047607421875	1108.344970703125	1490.54541015625	146.6407318115234	823.0252685546875	1457.911254882812	122.5426635742188	916.0589599609375	1485.92431640625	53.87091445922852	888.1375122070312	1513.682006835938	-102.2111434936523	1697.9482421875	1186.720825195312	89.70882415771484	1725.387084960938	1087.208374023438	66.77828216552734	1729.976318359375	1214.355224609375	-84.82363128662109	1701.185668945312	1048.369995117188	-85.57396697998047	1005.778198242188	965.7014770507812	-19.9459114074707	1024.448120117188	1329.696044921875	55.64389038085938	1054.050170898438	1270.502807617188	37.96773529052734	1047.863159179688	1012.869384765625	-23.78642272949219	506.4080810546875	1009.888000488281	-37.44859313964844	648.5798950195312	976.6780395507812	-123.269287109375	42.66230392456055	1030.596313476562	-73.28569030761719	279.4030151367188	1009.21142578125	92.62608337402344	51.7270393371582	1041.686157226562	48.36338043212891	48.31562805175781	1094.027221679688	-17.07695960998535	37.58601760864258	985.609619140625	-170.3865814208984	43.96689605712891	1102.350952148438	15.54473209381104	524.6016235351562	1289.996826171875	48.82168579101562	794.0778198242188	1322.933837890625	-83.12726593017578	39.5579948425293	1298.729125976562	23.58473777770996	402.7256164550781	1270.733764648438	139.4848022460938	46.5225944519043	1251.248291015625	82.88356781005859	48.01139831542969	1208.838623046875	30.19604110717773	36.99883270263672	1329.055419921875	-137.7764434814453	42.74782562255859	1232.468627929688	
654	6.53	-180.7633666992188	1064.132568359375	1212.250122070312	-185.0687866210938	1068.17431640625	1087.62890625	-182.94921875	1103.152099609375	1152.533569335938	71.44089508056641	1318.35009765625	1142.686767578125	-225.9655456542969	1259.392578125	1146.166381835938	-165.6419067382812	1529.96484375	1126.053588867188	40.18016815185547	1430.739868164062	1132.150268554688	-228.8022308349609	1355.804565429688	1241.945434570312	-172.0843353271484	1503.5166015625	1026.806518554688	-94.943115234375	1490.568237304688	948.4426879882812	-129.0801849365234	1355.580932617188	882.1283569335938	-113.0823669433594	1136.497802734375	873.3790893554688	-154.2996673583984	1120.882934570312	950.3906860351562	46.7353630065918	939.5751953125	922.144775390625	-27.12182807922363	894.5689697265625	884.7764282226562	-77.93910980224609	1027.87255859375	868.734375	106.3825149536133	767.2667846679688	961.3463745117188	10.53583145141602	833.217529296875	895.73828125	76.51523590087891	863.6493530273438	909.2099609375	-103.3685455322266	1515.307739257812	1306.034301757812	-121.3917770385742	1453.631225585938	1377.153930664062	-127.442985534668	1172.73583984375	1463.326782226562	-127.1813507080078	1152.982788085938	1366.398559570312	69.93686676025391	992.75537109375	1465.6328125	1.459818363189697	954.4712524414062	1506.243896484375	-86.92108154296875	1106.751342773438	1488.09326171875	146.8321533203125	820.0665283203125	1453.089965820312	123.4113082885742	913.093505859375	1481.735717773438	54.72103118896484	885.5430297851562	1509.655639648438	-101.0659103393555	1697.547729492188	1186.536499023438	90.85592651367188	1726.074096679688	1087.3583984375	67.67630004882812	1730.440795898438	1214.477905273438	-83.52423858642578	1700.958862304688	1048.198608398438	-84.04052734375	1005.460083007812	966.092041015625	-17.36238670349121	1024.675048828125	1329.922729492188	58.07992172241211	1054.144775390625	1270.442138671875	39.9088020324707	1047.391479492188	1012.852416992188	-25.19761085510254	506.4181213378906	1010.674743652344	-37.6854248046875	648.3799438476562	977.5428466796875	-123.2986297607422	42.90459060668945	1030.795776367188	-74.14427947998047	279.4851684570312	1009.76611328125	92.97934722900391	50.70676040649414	1041.449951171875	48.63400650024414	47.8067741394043	1094.05859375	-17.22476005554199	37.6247444152832	985.455810546875	-170.3357391357422	43.97642135620117	1102.6533203125	16.15633392333984	524.543701171875	1290.401611328125	50.85406875610352	793.9784545898438	1323.3759765625	-83.1341552734375	39.59440231323242	1298.685302734375	23.76094245910645	402.7606506347656	1271.036987304688	139.4689636230469	46.54177093505859	1251.261352539062	82.88429260253906	48.04578018188477	1208.868896484375	30.1959285736084	36.99706649780273	1329.052612304688	-137.7723693847656	42.78817367553711	1232.400390625	
655	6.54	-178.5746765136719	1064.232788085938	1212.85009765625	-183.1607055664062	1068.122314453125	1088.21337890625	-180.9017639160156	1103.212890625	1153.025268554688	73.48712158203125	1318.264526367188	1142.252685546875	-223.8423309326172	1259.324829101562	1146.244018554688	-163.5921630859375	1529.896606445312	1125.972045898438	42.22698593139648	1430.675903320312	1131.809814453125	-226.587646484375	1355.68896484375	1241.909057617188	-170.1394500732422	1503.395874023438	1026.68115234375	-93.02471160888672	1490.506469726562	948.2424926757812	-127.0287704467773	1355.537841796875	881.8551635742188	-110.7180480957031	1136.39208984375	873.0187377929688	-152.2819519042969	1120.781494140625	949.8128051757812	48.79933166503906	939.4417724609375	922.6744995117188	-24.85268020629883	894.4307250976562	885.0299682617188	-75.56861877441406	1027.75146484375	868.6030883789062	108.2661743164062	767.2177124023438	962.3856811523438	12.74430751800537	833.0791015625	896.277099609375	78.65373229980469	863.5158081054688	909.9722900390625	-101.0567092895508	1515.114013671875	1305.984619140625	-118.9789352416992	1453.167236328125	1376.977172851562	-125.1520462036133	1171.56591796875	1461.143310546875	-124.9300994873047	1152.52490234375	1364.108032226562	71.02252197265625	990.1920166015625	1462.107055664062	2.327139616012573	952.2841796875	1502.733154296875	-84.99625396728516	1105.26513671875	1485.4697265625	146.4569702148438	816.9161987304688	1448.313232421875	123.8140716552734	909.9522705078125	1477.573486328125	54.99697113037109	882.8524780273438	1505.552856445312	-99.93897247314453	1697.198486328125	1186.29736328125	91.99127960205078	1726.818359375	1087.476806640625	68.54745483398438	1730.9619140625	1214.57080078125	-82.2352294921875	1700.761352539062	1047.981567382812	-82.65566253662109	1005.34619140625	966.4058227539062	-14.94834899902344	1024.878051757812	1330.197875976562	60.3773307800293	1054.330810546875	1270.496826171875	41.79898071289062	1047.115112304688	1012.944702148438	-26.59902954101562	506.5692138671875	1011.19677734375	-37.94252777099609	648.3648071289062	978.2567138671875	-123.3333892822266	43.06240844726562	1030.852294921875	-75.05187225341797	279.7065124511719	1010.041564941406	93.21290588378906	50.04839706420898	1041.124633789062	48.82074737548828	47.56418991088867	1093.961059570312	-17.39096069335938	37.5966682434082	985.2100830078125	-170.3027191162109	44.04243469238281	1102.78173828125	16.5877742767334	524.521728515625	1290.88671875	52.67129135131836	793.8953857421875	1323.9111328125	-83.14512634277344	39.63236999511719	1298.634887695312	23.79530334472656	402.8438415527344	1271.42578125	139.4507446289062	46.55524063110352	1251.28515625	82.89128875732422	48.09170150756836	1208.907470703125	30.1949405670166	36.98889541625977	1329.055908203125	-137.7495269775391	42.83919525146484	1232.339233398438	
